# xmcd
#
# Track frame offsets:
#	150
#	40353
#	60360
#	83664
#	132046
#	151804
#	190887
#	220404
#	266229
#	293589
#	323240
#	346683
#
# Disc length: 5116 seconds
#
# Revision: 1
# Processed by: cddbd v1.5.1PL0 Copyright (c) Steve Scherf et al.
# Submitted via: audiograbber 1.83.01
#
DISCID=a613fa0c
DTITLE=Robin Trower - 19988-01-27 - New George's, San Raphael, CA - KRQR - 90 M
DTITLE=in Cdr
DYEAR=1900
DGENRE=
TTITLE0=Too Rolling Stoned
TTITLE1=Love Attack
TTITLE2=Day of the Eagle
TTITLE3=Bridge of Sighs
TTITLE4=Second Time
TTITLE5=No Time
TTITLE6=Take What You Need
TTITLE7=Rock Me Baby
TTITLE8=Tear It Up
TTITLE9=Little Bit of Sympathy
TTITLE10=Lady Love
TTITLE11=Into the Flame
EXTD=
EXTT0=
EXTT1=
EXTT2=
EXTT3=
EXTT4=
EXTT5=
EXTT6=
EXTT7=
EXTT8=
EXTT9=
EXTT10=
EXTT11=
PLAYORDER=
